<svg xmlns="http://www.w3.org/2000/svg" viewBox="0 0 48 48"><g fill="#010101"><path d="M30 29c.6 0 1 .5 1 1 0 .6.4 1 1 1s1-.4 1-1c0-1.3-.8-2.4-2-2.8V27c0-.6-.4-1-1-1s-1 .4-1 1v.2c-1.2.4-2 1.5-2 2.8 0 1.7 1.3 3 3 3 .6 0 1 .4 1 1s-.4 1-1 1-1-.4-1-1-.4-1-1-1-1 .4-1 1c0 1.3.8 2.4 2 2.8v.2c0 .6.4 1 1 1s1-.4 1-1v-.2c1.2-.4 2-1.5 2-2.8 0-1.7-1.3-3-3-3-.6 0-1-.4-1-1s.4-1 1-1z"/><path d="M36.4 3.1c-.3-.2-.7-.1-1 .1L32 5.8l-3.4-2.5c-.4-.3-.8-.3-1.2 0L24 5.8l-3.4-2.5c-.4-.3-.8-.3-1.2 0L16 5.8l-3.4-2.5c-.3-.2-.7-.3-1-.1-.4.1-.6.4-.6.8v40c0 .4.2.7.6.9.3.2.7.1 1-.1l3.4-2.5 3.4 2.5c.4.3.8.3 1.2 0l3.4-2.5 3.4 2.5c.4.3.8.3 1.2 0l3.4-2.5 3.4 2.5c.2.1.4.2.6.2.2 0 .3 0 .4-.1.3-.2.6-.5.6-.9V4c0-.4-.2-.7-.6-.9zM35 42l-2.4-1.8c-.4-.3-.8-.3-1.2 0L28 42.8l-3.4-2.5c-.2-.2-.4-.3-.6-.3s-.4.1-.6.2L20 42.8l-3.4-2.5c-.4-.3-.8-.3-1.2 0L13 42V6l2.4 1.8c.4.3.8.3 1.2 0L20 5.3l3.4 2.5c.4.3.8.3 1.2 0L28 5.3l3.4 2.5c.4.3.8.3 1.2 0L35 6v36z"/><path d="M25 10h-8c-.6 0-1 .4-1 1s.4 1 1 1h8c.6 0 1-.4 1-1s-.4-1-1-1zM29 12h2c.6 0 1-.4 1-1s-.4-1-1-1h-2c-.6 0-1 .4-1 1s.4 1 1 1zM25 14h-8c-.6 0-1 .4-1 1s.4 1 1 1h8c.6 0 1-.4 1-1s-.4-1-1-1zM29 16h2c.6 0 1-.4 1-1s-.4-1-1-1h-2c-.6 0-1 .4-1 1s.4 1 1 1zM25 18h-8c-.6 0-1 .4-1 1s.4 1 1 1h8c.6 0 1-.4 1-1s-.4-1-1-1zM29 20h2c.6 0 1-.4 1-1s-.4-1-1-1h-2c-.6 0-1 .4-1 1s.4 1 1 1zM25 22h-8c-.6 0-1 .4-1 1s.4 1 1 1h8c.6 0 1-.4 1-1s-.4-1-1-1zM25 26h-8c-.6 0-1 .4-1 1s.4 1 1 1h8c.6 0 1-.4 1-1s-.4-1-1-1zM29 24h2c.6 0 1-.4 1-1s-.4-1-1-1h-2c-.6 0-1 .4-1 1s.4 1 1 1z"/></g></svg>