<?xml version="1.0" ?><!DOCTYPE svg  PUBLIC '-//W3C//DTD SVG 1.1//EN'  'http://www.w3.org/Graphics/SVG/1.1/DTD/svg11.dtd'><svg enable-background="new 0 0 512 512" height="512px" id="Layer_1" version="1.1" viewBox="0 0 512 512" width="512px" xml:space="preserve" xmlns="http://www.w3.org/2000/svg" xmlns:xlink="http://www.w3.org/1999/xlink"><g><path d="M80.733,390.611c-4.971,0-9,4.029-9,9v32.446c0,15.956,12.98,28.937,28.937,28.937h310.661   c15.955,0,28.936-12.98,28.936-28.937V257.624c0-15.956-12.98-28.937-28.936-28.937h-65.235v-43.076c0-4.971-4.029-9-9-9h-16.825   l88.862-110.98c2.163-2.701,2.586-6.402,1.087-9.521c-1.498-3.119-4.652-5.104-8.112-5.104h-83.574   c-2.638,0-5.143,1.157-6.853,3.165l-55.12,64.736l-55.12-64.736c-1.71-2.008-4.215-3.165-6.853-3.165h-83.574   c-3.46,0-6.614,1.984-8.112,5.103c-1.499,3.119-1.076,6.821,1.087,9.522l88.862,110.98h-17.946c-4.971,0-9,4.029-9,9v43.076H100.67   c-15.956,0-28.937,12.98-28.937,28.937v99.321c0,4.971,4.029,9,9,9s9-4.029,9-9v-99.321c0-6.03,4.906-10.937,10.937-10.937h74.234   h162.191h74.235c6.03,0,10.936,4.906,10.936,10.937v174.434c0,6.03-4.905,10.937-10.936,10.937H100.67   c-6.03,0-10.937-4.906-10.937-10.937v-32.446C89.733,394.641,85.704,390.611,80.733,390.611z M322.69,69.006h60.681   l-86.159,107.605h-66.143l32.344-37.986c0.001-0.001,0.001-0.001,0.001-0.002L322.69,69.006z M190.431,69.006l54.31,63.784   l-32.941,38.688l-82.05-102.473H190.431z M183.904,228.688v-34.076h27.682h89.949h26.561v34.076H183.904z"/><path d="M240.919,264.789H127.717c-4.971,0-9,4.029-9,9v142.104c0,0.04,0.006,0.078,0.006,0.117c0.001,0.101,0.011,0.2,0.016,0.301   c0.012,0.261,0.032,0.519,0.066,0.773c0.014,0.105,0.03,0.209,0.048,0.313c0.047,0.275,0.105,0.547,0.177,0.813   c0.02,0.072,0.035,0.145,0.056,0.217c0.103,0.35,0.223,0.69,0.364,1.021c0.01,0.021,0.021,0.041,0.03,0.063   c0.134,0.304,0.286,0.598,0.452,0.883c0.021,0.038,0.036,0.078,0.059,0.115c0.028,0.047,0.063,0.087,0.092,0.133   c0.147,0.237,0.307,0.467,0.475,0.688c0.052,0.067,0.099,0.137,0.152,0.203c0.217,0.269,0.447,0.526,0.693,0.769   c0.054,0.053,0.111,0.1,0.166,0.15c0.202,0.19,0.412,0.37,0.632,0.541c0.081,0.063,0.163,0.124,0.246,0.185   c0.228,0.164,0.462,0.317,0.704,0.46c0.059,0.035,0.114,0.073,0.174,0.106c0.312,0.175,0.633,0.332,0.966,0.47   c0.03,0.012,0.062,0.021,0.093,0.033c0.294,0.118,0.597,0.218,0.906,0.305c0.088,0.024,0.176,0.046,0.265,0.068   c0.264,0.065,0.531,0.117,0.803,0.159c0.095,0.014,0.188,0.031,0.282,0.043c0.354,0.042,0.713,0.07,1.078,0.07h113.202   c0.006,0,0.012,0,0.02,0c4.971,0,9-4.029,9-9c0-0.094-0.017-0.183-0.02-0.274V273.789   C249.919,268.818,245.89,264.789,240.919,264.789z M231.919,282.789v97.387l-13.115-24.372c-1.569-2.917-4.614-4.735-7.926-4.735   h-53.119c-3.312,0-6.355,1.818-7.925,4.735l-13.117,24.374v-97.389H231.919z M142.78,406.893l20.355-37.824h42.365l20.354,37.824   H142.78z"/><path d="M184.318,344.215c14.262,0,25.865-11.603,25.865-25.864s-11.604-25.864-25.865-25.864   c-14.261,0-25.863,11.603-25.863,25.864S170.058,344.215,184.318,344.215z M184.318,310.486c4.337,0,7.865,3.528,7.865,7.864   s-3.528,7.864-7.865,7.864c-4.336,0-7.863-3.528-7.863-7.864S179.982,310.486,184.318,310.486z"/><path d="M385.817,306.474c4.971,0,9-4.029,9-9s-4.029-9-9-9h-84.282c-4.971,0-9,4.029-9,9s4.029,9,9,9H385.817z"/><path d="M271.996,344.841c0,4.971,4.029,9,9,9h104.821c4.971,0,9-4.029,9-9s-4.029-9-9-9H280.996   C276.025,335.841,271.996,339.87,271.996,344.841z"/><path d="M280.996,401.208h104.821c4.971,0,9-4.029,9-9s-4.029-9-9-9H280.996c-4.971,0-9,4.029-9,9S276.025,401.208,280.996,401.208   z"/></g></svg>